<svg xmlns:ns0="http://www.w3.org/2000/svg" xmlns="http://www.w3.org/2000/svg" style="display:none">
	<symbol id="icon-shopping-cart" viewBox="0 0 16 16">
		<ns0:path d="M0 1H15V10H4.60087L4.17982 12H12C13.1046 12 14 12.8954 14 14C14 15.1046 13.1046 16 12 16C10.8954 16 10 15.1046 10 14H6C6 15.1046 5.10457 16 4 16C2.89543 16 2 15.1046 2 14V12.6459L2.98262 7.97846L2.15287 3H0V1Z" fill="#000000" />
	</symbol>
	
	<symbol id="icon-shop" viewBox="0 0 16 16">
		<ns0:path d="M3 1L0 4V5C0 5 2 6 4 6C6 6 8 5 8 5C8 5 10 6 12 6C14 6 16 5 16 5V4L13 1H3Z" fill="#000000" />
		<ns0:path fill-rule="evenodd" clip-rule="evenodd" d="M1 15V7.5187C1.81671 7.76457 2.88168 8 4 8C5.3025 8 6.53263 7.68064 7.38246 7.39737C7.60924 7.32177 7.81664 7.24612 8 7.17526C8.18337 7.24612 8.39076 7.32177 8.61754 7.39737C9.46737 7.68064 10.6975 8 12 8C13.1183 8 14.1833 7.76457 15 7.5187V15H7V10H4V15H1ZM12 10H10V13H12V10Z" fill="#000000" />
	</symbol>
	
	<symbol id="icon-profile" viewBox="0 0 24 24">
		<ns0:path fill-rule="evenodd" clip-rule="evenodd" d="M16.5 7.063C16.5 10.258 14.57 13 12 13c-2.572 0-4.5-2.742-4.5-5.938C7.5 3.868 9.16 2 12 2s4.5 1.867 4.5 5.063zM4.102 20.142C4.487 20.6 6.145 22 12 22c5.855 0 7.512-1.4 7.898-1.857a.416.416 0 0 0 .09-.317C19.9 18.944 19.106 15 12 15s-7.9 3.944-7.989 4.826a.416.416 0 0 0 .091.317z" fill="#000000" />
	</symbol>

	<symbol id="icon-arrow-right" viewBox="0 0 16 16">
		<ns0:path d="M8 0L6.59 1.41 13.17 8 6.59 14.59 8 16l8-8z" fill="#000000" />
	</symbol>

	<symbol id="icon-arrow-left" viewBox="0 0 24 24">
  		<ns0:path d="M10.828 12l4.95-4.95-1.414-1.414L8 12l6.364 6.364 1.414-1.414z" />
	</symbol>

</svg>